<svg xmlns="http://www.w3.org/2000/svg" width="25.796" height="28.986" viewBox="0 0 25.796 28.986"><g transform="translate(-627.102 -728.014)"><g transform="translate(139.912 146.412)"><g transform="translate(489.5 599.5)"><path d="M10.588,11.088a.5.5,0,0,1-.354-.146L-.354.354a.5.5,0,0,1,0-.707.5.5,0,0,1,.707,0L10.941,10.234a.5.5,0,0,1-.354.854Z" transform="translate(0 0)" fill="#f2f1f3"/><path d="M0,11.088a.5.5,0,0,1-.354-.146.5.5,0,0,1,0-.707L10.234-.354a.5.5,0,0,1,.707,0,.5.5,0,0,1,0,.707L.354,10.941A.5.5,0,0,1,0,11.088Z" transform="translate(10.588 0)" fill="#f2f1f3"/></g></g><g transform="translate(138.102 129.014)"><g transform="translate(489.5 599.5)"><path d="M12.4,12.9a.5.5,0,0,1-.354-.146L-.354.354a.5.5,0,0,1,0-.707.5.5,0,0,1,.707,0l12.4,12.4a.5.5,0,0,1-.354.854Z" transform="translate(0 0)" fill="#695dd8"/><path d="M0,12.9a.5.5,0,0,1-.354-.146.5.5,0,0,1,0-.707l12.4-12.4a.5.5,0,0,1,.707,0,.5.5,0,0,1,0,.707l-12.4,12.4A.5.5,0,0,1,0,12.9Z" transform="translate(12.398 0)" fill="#695dd8"/></g></g></g></svg>