<svg xmlns="http://www.w3.org/2000/svg" xmlns:xlink="http://www.w3.org/1999/xlink" width="35" height="35" viewBox="0 0 35 35">
  <defs>
    <clipPath id="clip-path">
      <rect id="Rectangle_4" data-name="Rectangle 4" width="35" height="35" fill="#695dd8" stroke="#707070" stroke-width="1"/>
    </clipPath>
  </defs>
  <g id="Group_13" data-name="Group 13" transform="translate(0 0.467)">
    <g id="Component_4_1" data-name="Component 4 – 1" transform="translate(0 -0.467)">
      <g id="Mask_Group_5" data-name="Mask Group 5" clip-path="url(#clip-path)">
        <path id="_8666135_bootstrap_icon" data-name="8666135_bootstrap_icon" d="M20.894,12.344c0-1.276-.972-1.981-2.678-1.981H15.077v4.111h2.647C19.767,14.469,20.894,13.707,20.894,12.344Zm11.428-.739a16.852,16.852,0,0,1-.61-5.665,3.344,3.344,0,0,0-3.407-3.378H7.828A3.343,3.343,0,0,0,4.422,5.94a17.013,17.013,0,0,1-.61,5.665c-.6,1.79-1.6,2.922-3.251,3.066v1.646c1.644.144,2.653,1.276,3.251,3.066a16.852,16.852,0,0,1,.61,5.665,3.344,3.344,0,0,0,3.407,3.378H28.3a3.343,3.343,0,0,0,3.407-3.378,17.013,17.013,0,0,1,.61-5.665c.6-1.79,1.6-2.922,3.245-3.066V14.671C33.923,14.527,32.914,13.4,32.322,11.605ZM18.82,22.375h-6.1V8.614h6.066c2.7,0,4.465,1.351,4.465,3.43a3.142,3.142,0,0,1-2.709,2.991v.075C22.613,15.318,24,16.646,24,18.477,24,20.908,22.052,22.375,18.82,22.375ZM18.2,16.1h-3.12v4.527h3.257c2.13,0,3.257-.791,3.257-2.281S20.433,16.1,18.2,16.1Z" transform="translate(-0.56 2.006)" fill="#695dd8"/>
      </g>
    </g>
  </g>
</svg>
