<svg id="icons8-c_" data-name="icons8-c++" xmlns="http://www.w3.org/2000/svg" width="38" height="42" viewBox="0 0 38 42">
  <path id="Path_69" data-name="Path 69" d="M22.9,3.286a2.247,2.247,0,0,1,2.193,0L41.9,12.72A2.119,2.119,0,0,1,43,14.566V33.433a2.122,2.122,0,0,1-1.1,1.847L25.1,44.714a2.247,2.247,0,0,1-2.193,0L6.1,35.28A2.122,2.122,0,0,1,5,33.434V14.567A2.122,2.122,0,0,1,6.1,12.72Z" transform="translate(-5 -3)" fill="#00549d" fill-rule="evenodd"/>
  <path id="Path_70" data-name="Path 70" d="M5.3,34.4A1.719,1.719,0,0,1,5,33.255V14.5A2.107,2.107,0,0,1,6.094,12.66L22.842,3.28a2.41,2.41,0,0,1,2.271.008c3.343,1.872,13.371,7.459,16.714,9.331a2.093,2.093,0,0,1,.66.576Z" transform="translate(-5 -3)" fill="#0086d4" fill-rule="evenodd"/>
  <path id="Path_71" data-name="Path 71" d="M24,10A14,14,0,1,1,10,24,14.006,14.006,0,0,1,24,10Zm0,7a7,7,0,1,1-7,7A7,7,0,0,1,24,17Z" transform="translate(-5 -3)" fill="#fff" fill-rule="evenodd"/>
  <path id="Path_72" data-name="Path 72" d="M42.485,13.2a2.3,2.3,0,0,1,.506,1.784c0,3.8-.032,14.589.009,18.384a2.172,2.172,0,0,1-.323,1.127L23.593,24Z" transform="translate(-5 -3)" fill="#0075c0" fill-rule="evenodd"/>
  <path id="Path_73" data-name="Path 73" d="M31,21h2v6H31Zm7,0h2v6H38Z" transform="translate(-5 -3)" fill="#fff" fill-rule="evenodd"/>
  <path id="Path_74" data-name="Path 74" d="M29,23h6v2H29Zm7,0h6v2H36Z" transform="translate(-5 -3)" fill="#fff" fill-rule="evenodd"/>
</svg>
