<svg id="_x31_41-git" xmlns="http://www.w3.org/2000/svg" width="35" height="35" viewBox="0 0 35 35">
  <g id="Group_127" data-name="Group 127">
    <path id="Path_67" data-name="Path 67" d="M42.665,40.821c0,1.977,1.363,4.687,3.492,5.352v.078c-1.582.648-2.019,3.953.084,5.141v.078c-2.3.7-3.811,2.055-3.811,4.391,0,4.024,4.106,5.141,7.7,5.141,4.375,0,7.631-1.461,7.631-5.938,0-5.508-8.5-3.476-8.5-6.469,0-1.054.606-1.461,1.657-1.664A6.388,6.388,0,0,0,56.6,40.509a4.412,4.412,0,0,0-.337-1.641c.564-.117,1.111-.258,1.657-.43V34.493a13.424,13.424,0,0,1-4.585.922c-4.527-2.422-10.668.1-10.668,5.406Zm7.379,12.8c1.43,0,3.466.234,3.466,1.953,0,1.7-1.641,2.055-3.172,2.055-1.456,0-3.643-.211-3.643-1.969.008-1.742,1.859-2.039,3.348-2.039ZM49.774,43.5a2.346,2.346,0,0,1-2.633-2.641,2.581,2.581,0,1,1,5.132-.039C52.273,42.407,51.6,43.5,49.774,43.5Zm27.655,3.867V51.2a8.763,8.763,0,0,1-3.828.766c-4.5,0-5.031-3.3-5.031-6.7V38.415h.042v-.078a7.233,7.233,0,0,0-2.019.078V34.7h2.019a17.511,17.511,0,0,0-.126-3.219h4.771A20.625,20.625,0,0,0,73.13,34.7h4.291v3.711s-1.624-.078-4.291-.078v7.117c0,1.156.278,2.563,1.834,2.563A4.852,4.852,0,0,0,77.429,47.368Zm-12.284-18.5A2.873,2.873,0,1,1,62.3,26,2.866,2.866,0,0,1,65.145,28.868Zm-.522,5.82c-.151,1.141-.135,15.609,0,17.016h-4.67c.135-1.414.151-15.859,0-17.016Z" transform="translate(-42.429 -26.001)" fill="#f05033"/>
  </g>
</svg>
