<svg xmlns="http://www.w3.org/2000/svg" width="36.462" height="27.766" viewBox="0 0 36.462 27.766">
  <g id="Layer_1" transform="translate(0 0)">
    <g id="Group_26" data-name="Group 26">
      <path id="Path_46" data-name="Path 46" d="M9.84,67.644H15.9V84.639c0,7.66-3.67,10.333-9.535,10.333A15.905,15.905,0,0,1,1.9,94.333l.678-4.907a10,10,0,0,0,3.112.479c2.553,0,4.149-1.157,4.149-5.306Z" transform="translate(-1.901 -67.205)" fill="#695dd8"/>
      <path id="Path_47" data-name="Path 47" d="M253.547,82.654a15.365,15.365,0,0,0,6.742,1.676c2.793,0,4.269-1.157,4.269-2.952,0-1.636-1.277-2.633-4.508-3.75-4.468-1.6-7.42-4.069-7.42-8.019,0-4.588,3.87-8.059,10.173-8.059a15.73,15.73,0,0,1,6.862,1.356l-1.356,4.867a12.578,12.578,0,0,0-5.585-1.277c-2.633,0-3.91,1.237-3.91,2.593,0,1.715,1.476,2.473,4.987,3.83,4.747,1.755,6.941,4.229,6.941,8.059,0,4.508-3.431,8.338-10.811,8.338a17.537,17.537,0,0,1-7.62-1.676Z" transform="translate(-234.279 -61.55)" fill="#695dd8"/>
    </g>
  </g>
</svg>
