<svg xmlns="http://www.w3.org/2000/svg" xmlns:xlink="http://www.w3.org/1999/xlink" width="35" height="35" viewBox="0 0 35 35">
  <defs>
    <clipPath id="clip-path">
      <rect id="Rectangle_4" data-name="Rectangle 4" width="35" height="35" fill="none" stroke="#fff" stroke-width="1"/>
    </clipPath>
  </defs>
  <g id="Group_10" data-name="Group 10" transform="translate(0 0.462)">
    <g id="Component_1_1" data-name="Component 1 – 1" transform="translate(0 -0.462)">
      <g id="Mask_Group_2" data-name="Mask Group 2" clip-path="url(#clip-path)">
        <g id="Photoshop" transform="translate(0 2.031)">
          <path id="Path_13" data-name="Path 13" d="M33.594,9.844c0-1.553-.961-2.812-2.146-2.812H1.406V35.156c0,1.553.961,2.813,2.146,2.813h27.9c1.185,0,2.146-1.259,2.146-2.812Z" transform="translate(0 -7.031)" fill="#001d26"/>
          <path id="Path_14" data-name="Path 14" d="M14.214,15.375c0-.086.188-.152.294-.152.844-.043,2.083-.064,3.375-.064,3.639,0,5.063,1.991,5.063,4.547,0,3.336-2.419,4.764-5.385,4.764-.5,0-.671-.022-1.018-.022v5.044c0,.109-.043.152-.152.152H14.366c-.109,0-.152-.043-.152-.152Zm2.329,6.973c.3.023.542.023,1.061.023,1.538,0,2.983-.542,2.983-2.625,0-1.667-1.033-2.513-2.788-2.513-.519,0-1.018.023-1.256.043Zm11.3-1.56c-1.039,0-1.386.521-1.386.954,0,.476.238.8,1.624,1.515,2.063,1,2.708,1.95,2.708,3.358,0,2.1-1.6,3.227-3.769,3.227a5.742,5.742,0,0,1-2.687-.562c-.086-.043-.109-.109-.109-.216V27.135c0-.131.066-.174.152-.109a4.856,4.856,0,0,0,2.644.78c1.041,0,1.474-.433,1.474-1.018,0-.476-.3-.889-1.624-1.581-1.864-.889-2.644-1.8-2.644-3.313,0-1.687,1.322-3.1,3.617-3.1a5.944,5.944,0,0,1,2.355.375.283.283,0,0,1,.129.261v1.8c0,.107-.064.172-.187.129a4.7,4.7,0,0,0-2.3-.572Z" transform="translate(-5 -5.358)" fill="#d9f5ff" fill-rule="evenodd"/>
          <path id="Path_4" data-name="Path 4" d="M31.719,4.2H20.071a.508.508,0,0,1-.384-.157L16.3.788A2.709,2.709,0,0,0,14.384,0H3.281A3.226,3.226,0,0,0,0,3.147v23.08a3.226,3.226,0,0,0,3.281,3.147H31.719A3.226,3.226,0,0,0,35,26.228V7.344A3.226,3.226,0,0,0,31.719,4.2Zm2.188,22.031a2.144,2.144,0,0,1-2.187,2.1H3.281a2.144,2.144,0,0,1-2.188-2.1V5.246H31.719a2.144,2.144,0,0,1,2.188,2.1Z" transform="translate(0 0.781)" fill="#00c8ff"/>
        </g>
      </g>
    </g>
  </g>
</svg>
