<svg xmlns="http://www.w3.org/2000/svg" xmlns:xlink="http://www.w3.org/1999/xlink" width="35" height="35" viewBox="0 0 35 35">
  <defs>
    <clipPath id="clip-path">
      <rect id="Rectangle_4" data-name="Rectangle 4" width="35" height="35" fill="#fff" stroke="#707070" stroke-width="1"/>
    </clipPath>
  </defs>
  <g id="Group_12" data-name="Group 12" transform="translate(0 0.467)">
    <g id="Component_3_1" data-name="Component 3 – 1" transform="translate(0 -0.467)">
      <g id="Mask_Group_4" data-name="Mask Group 4" clip-path="url(#clip-path)">
        <g id="_7423888_react_react_native_icon" data-name="7423888_react_react native_icon" transform="translate(0 2.409)">
          <circle id="Ellipse_6" data-name="Ellipse 6" cx="4.111" cy="4.111" r="4.111" transform="translate(13.389 10.965)" fill="#61dafb"/>
          <path id="Path_17" data-name="Path 17" d="M23.291,27.358c2.51,2.357,4.985,3.752,6.979,3.752a3.552,3.552,0,0,0,1.788-.432c1.788-1,2.441-3.486,1.822-7.039-.1-.631-.241-1.262-.413-1.926.688-.2,1.306-.4,1.925-.6,3.472-1.295,5.4-3.088,5.4-5.047,0-1.992-1.925-3.785-5.4-5.047a16.176,16.176,0,0,0-1.925-.6c.172-.664.309-1.295.413-1.926.584-3.619-.069-6.143-1.857-7.139A3.552,3.552,0,0,0,30.236.928c-1.96,0-4.47,1.395-6.979,3.752C20.781,2.323,18.305.928,16.311.928a3.552,3.552,0,0,0-1.788.432c-1.788,1-2.441,3.486-1.822,7.039.1.631.241,1.262.413,1.926-.688.2-1.306.4-1.925.6-3.472,1.295-5.4,3.088-5.4,5.047,0,1.992,1.925,3.785,5.4,5.047a16.176,16.176,0,0,0,1.925.6c-.172.664-.309,1.295-.413,1.926-.584,3.553.069,6.076,1.822,7.039a3.552,3.552,0,0,0,1.788.432C18.305,31.077,20.781,29.682,23.291,27.358Zm-1.925-4.482c.619.033,1.272.033,1.925.033s1.306,0,1.925-.033c-.619.8-1.272,1.527-1.925,2.225C22.638,24.4,21.984,23.672,21.365,22.876ZM17.1,19.456c.344.564.653,1.1,1.031,1.627-1.066-.133-2.063-.3-3.026-.5.309-.9.653-1.826,1.066-2.756C16.449,18.36,16.758,18.924,17.1,19.456Zm-1.994-8c.963-.2,1.96-.365,3.026-.5-.344.531-.688,1.063-1.031,1.627s-.653,1.1-.928,1.66A21.715,21.715,0,0,1,15.108,11.454ZM17,16c.447-.9.928-1.793,1.478-2.689.516-.863,1.1-1.727,1.685-2.59,1.031-.066,2.063-.1,3.129-.1,1.1,0,2.132.033,3.129.1.619.863,1.169,1.727,1.685,2.59.55.9,1.031,1.793,1.478,2.689-.447.9-.928,1.793-1.478,2.689-.516.863-1.1,1.727-1.685,2.59-1.031.066-2.063.1-3.129.1-1.1,0-2.132-.033-3.129-.1-.619-.863-1.169-1.727-1.685-2.59C17.927,17.8,17.446,16.9,17,16ZM30.442,14.21l-.928-1.66c-.344-.564-.653-1.1-1.031-1.627,1.066.133,2.063.3,3.026.5C31.2,12.35,30.855,13.28,30.442,14.21Zm0,3.586c.413.93.756,1.859,1.066,2.756-.963.2-1.96.365-3.026.5.344-.531.688-1.063,1.031-1.627C29.823,18.924,30.133,18.36,30.442,17.8Zm.791,11.522a1.918,1.918,0,0,1-1,.232c-1.685,0-3.782-1.328-5.845-3.32a35.025,35.025,0,0,0,2.922-3.486,32.523,32.523,0,0,0,4.607-.7,16.647,16.647,0,0,1,.378,1.793C32.78,26.661,32.4,28.686,31.233,29.317Zm1.788-17.5c3.851,1.063,6.154,2.689,6.154,4.184,0,1.295-1.582,2.59-4.366,3.619-.55.2-1.169.4-1.788.564A34.183,34.183,0,0,0,31.336,16,29.458,29.458,0,0,0,33.021,11.819ZM30.27,2.456a2,2,0,0,1,1,.232c1.135.631,1.547,2.623,1.066,5.479-.1.564-.241,1.162-.378,1.793a46.087,46.087,0,0,0-4.607-.7,30.908,30.908,0,0,0-2.922-3.486C26.488,3.817,28.585,2.456,30.27,2.456ZM25.216,9.129C24.6,9.1,23.944,9.1,23.291,9.1s-1.306,0-1.925.033c.619-.8,1.272-1.527,1.925-2.225C23.944,7.6,24.6,8.366,25.216,9.129ZM15.349,2.688a1.918,1.918,0,0,1,1-.232c1.685,0,3.782,1.328,5.845,3.32a35.025,35.025,0,0,0-2.922,3.486,32.522,32.522,0,0,0-4.607.7,16.647,16.647,0,0,1-.378-1.793C13.8,5.344,14.18,3.352,15.349,2.688Zm-1.788,17.5C9.71,19.124,7.407,17.5,7.407,16c0-1.295,1.582-2.59,4.366-3.619.55-.2,1.169-.4,1.788-.564A34.183,34.183,0,0,0,15.246,16,31.12,31.12,0,0,0,13.561,20.186Zm.722,3.652c.1-.564.241-1.162.378-1.793a46.087,46.087,0,0,0,4.607.7,30.909,30.909,0,0,0,2.922,3.486c-2.063,1.959-4.16,3.32-5.845,3.32a2,2,0,0,1-1-.232C14.18,28.686,13.8,26.661,14.283,23.839Z" transform="translate(-5.791 -0.928)" fill="#61dafb"/>
        </g>
      </g>
    </g>
  </g>
</svg>
