<svg xmlns="http://www.w3.org/2000/svg" xmlns:xlink="http://www.w3.org/1999/xlink" width="35" height="35" viewBox="0 0 35 35">
  <defs>
    <clipPath id="clip-path">
      <rect id="Rectangle_4" data-name="Rectangle 4" width="35" height="35" transform="translate(0 -0.063)" fill="#fff" stroke="#707070" stroke-width="1"/>
    </clipPath>
  </defs>
  <g id="Mask_Group_1" data-name="Mask Group 1" transform="translate(0 0.063)" clip-path="url(#clip-path)">
    <g id="XD" transform="translate(0 2.077)">
      <path id="Path_10" data-name="Path 10" d="M33.124,7.3a2.14,2.14,0,0,0-2.14-2.14H1.031v21.4a2.14,2.14,0,0,0,2.14,2.14H30.985a2.14,2.14,0,0,0,2.14-2.14Z" transform="translate(0.039 0.193)" fill="#2e001f"/>
      <path id="Path_11" data-name="Path 11" d="M14.447,16.487l2.8,5.372c.05.08.02.16-.06.16H15.446a.2.2,0,0,1-.21-.13c-.639-1.318-1.284-2.636-1.957-4.054h-.02c-.6,1.338-1.258,2.746-1.9,4.064a.191.191,0,0,1-.18.11H9.535c-.1,0-.11-.08-.06-.143l2.736-5.212L9.565,11.377a.081.081,0,0,1,.06-.143h1.719a.157.157,0,0,1,.18.11c.629,1.318,1.268,2.676,1.867,4h.02c.579-1.318,1.218-2.686,1.837-3.994.05-.08.08-.13.18-.13h1.608c.08,0,.11.06.06.143Z" transform="translate(0.353 0.419)" fill="#ffd9f2"/>
      <path id="Path_12" data-name="Path 12" d="M17.434,18.114a3.9,3.9,0,0,1,4-4.136,4.425,4.425,0,0,1,.519.02V11.345a.1.1,0,0,1,.1-.1h1.578c.08,0,.1.03.1.08V20.49a7.113,7.113,0,0,0,.05.978c0,.06-.02.08-.08.11a5.948,5.948,0,0,1-2.556.579C18.981,22.168,17.434,20.833,17.434,18.114Zm4.523-2.559a1.511,1.511,0,0,0-.579-.1c-1.258,0-2.14.969-2.14,2.576,0,1.837.9,2.576,2.027,2.576a1.884,1.884,0,0,0,.689-.11Z" transform="translate(0.651 0.42)" fill="#ffd9f2"/>
      <path id="Path_4" data-name="Path 4" d="M31.023,4.279H19.631a.486.486,0,0,1-.375-.16L15.94.8A2.6,2.6,0,0,0,14.068,0H3.209A3.219,3.219,0,0,0,0,3.209V26.744a3.219,3.219,0,0,0,3.209,3.209H31.023a3.219,3.219,0,0,0,3.209-3.209V7.488A3.219,3.219,0,0,0,31.023,4.279Zm2.14,22.465a2.14,2.14,0,0,1-2.14,2.14H3.209a2.14,2.14,0,0,1-2.14-2.14V5.349H31.023a2.14,2.14,0,0,1,2.14,2.14Z" transform="translate(0 0)" fill="#ff26be"/>
    </g>
  </g>
</svg>
